<?xml version="1.0" encoding="UTF-8" standalone="no"?>
<svg width="236px" height="68px" viewBox="0 0 236 68" version="1.1" xmlns="http://www.w3.org/2000/svg" xmlns:xlink="http://www.w3.org/1999/xlink" xmlns:sketch="http://www.bohemiancoding.com/sketch/ns">
    <title>logo</title>
    <description>Created with Sketch (http://www.bohemiancoding.com/sketch)</description>
    <defs></defs>
    <g id="Page-1" stroke="none" stroke-width="1" fill="none" fill-rule="evenodd" sketch:type="MSPage">
        <path d="M25.0094016,32 L25.0094016,0.956520635 L20.6465343,0.956520635 L20.6465343,11.6119852 L20.562633,11.6119852 C18.7168045,9.2627489 15.6124565,8.13008141 12.6759112,8.13008141 C5.62820235,8.13008141 0.594124616,13.4997643 0.594124616,20.4635719 C0.594124616,27.3854287 5.71210365,32.5873091 12.6759112,32.5873091 C15.9061111,32.5873091 18.9685083,31.3707403 20.8982381,28.6858988 L20.9821394,28.6858988 L20.9821394,32 L25.0094016,32 Z M20.9821394,20.4216212 C20.9821394,24.9103405 17.4163344,28.6019975 12.8856644,28.6019975 C8.43889575,28.6019975 4.95699199,24.7844886 4.95699199,20.4216212 C4.95699199,15.8909512 8.31304381,12.1153929 12.9276151,12.1153929 C17.6680383,12.1153929 20.9821394,15.7650993 20.9821394,20.4216212 Z M54.0812005,32 L54.0812005,8.75934112 L49.7183332,8.75934112 L49.7183332,12.0314917 L49.6344319,12.0314917 C47.9144553,9.38860084 44.852058,8.13008141 41.7477101,8.13008141 C34.7000013,8.13008141 29.4142196,13.415863 29.4142196,20.4635719 C29.4142196,27.46933 34.7839026,32.5873091 41.7477101,32.5873091 C44.9359593,32.5873091 47.9983566,31.2029377 49.6344319,28.3922443 L49.7183332,28.3922443 L49.7183332,32 L54.0812005,32 Z M49.8022345,20.4216212 C49.8022345,24.9103405 46.2364294,28.6019975 41.7057595,28.6019975 C37.2589908,28.6019975 33.777087,24.7844886 33.777087,20.4216212 C33.777087,15.8909512 37.1331388,12.1153929 41.7477101,12.1153929 C46.4881333,12.1153929 49.8022345,15.7650993 49.8022345,20.4216212 Z M80.3003554,32 L80.3003554,18.2401875 C80.3003554,16.1846058 79.9647502,14.0451227 78.8320827,12.2831955 C77.0282049,9.43055149 73.923857,8.13008141 70.6097558,8.13008141 C67.9249143,8.13008141 65.4917767,9.01104501 63.8137508,11.2344293 L63.7298495,11.2344293 L63.7298495,8.75934112 L59.6606367,8.75934112 L59.6606367,32 L64.0235041,32 L64.0235041,19.3309044 C64.0235041,15.4294941 65.8693326,12.1153929 70.1482987,12.1153929 C74.7628699,12.1153929 75.937488,15.4294941 75.937488,19.372855 L75.937488,32 L80.3003554,32 Z M122.71246,20.3796706 C122.71246,13.7514682 117.384728,8.13008141 110.672624,8.13008141 C107.526326,8.13008141 104.58978,9.38860084 102.702001,11.989541 L102.6181,11.989541 L102.6181,0.956520635 L98.2552327,0.956520635 L98.2552327,32 L102.576149,32 L102.576149,28.6439482 L102.660051,28.6439482 C104.54783,31.160987 107.610227,32.5873091 110.756526,32.5873091 C117.552531,32.5873091 122.71246,27.0917742 122.71246,20.3796706 Z M118.349593,20.3796706 C118.349593,24.7425379 114.867689,28.6019975 110.420921,28.6019975 C105.806349,28.6019975 102.492248,24.8264392 102.492248,20.2957693 C102.492248,15.8909512 105.932201,12.1153929 110.420921,12.1153929 C114.95159,12.1153929 118.349593,15.9748525 118.349593,20.3796706 Z M150.56769,32 L150.56769,8.75934112 L146.204823,8.75934112 L146.204823,12.0314917 L146.120922,12.0314917 C144.400945,9.38860084 141.338548,8.13008141 138.2342,8.13008141 C131.186491,8.13008141 125.90071,13.415863 125.90071,20.4635719 C125.90071,27.46933 131.270392,32.5873091 138.2342,32.5873091 C141.422449,32.5873091 144.484847,31.2029377 146.120922,28.3922443 L146.204823,28.3922443 L146.204823,32 L150.56769,32 Z M146.288724,20.4216212 C146.288724,24.9103405 142.722919,28.6019975 138.192249,28.6019975 C133.745481,28.6019975 130.263577,24.7844886 130.263577,20.4216212 C130.263577,15.8909512 133.619629,12.1153929 138.2342,12.1153929 C142.974623,12.1153929 146.288724,15.7650993 146.288724,20.4216212 Z M166.257233,12.6188007 L166.257233,8.13008141 C163.907996,8.2139827 161.768513,8.84324242 160.342191,10.8568735 L160.25829,10.8568735 L160.25829,8.75934112 L156.189077,8.75934112 L156.189077,32 L160.551945,32 L160.551945,19.2889537 C160.551945,17.1914213 161.055352,14.5065799 163.110934,13.4578137 C163.949947,12.9963566 165.292368,12.6188007 166.257233,12.6188007 Z M194.070512,20.3796706 C194.070512,13.7514682 188.74278,8.13008141 182.030676,8.13008141 C178.884378,8.13008141 175.947832,9.38860084 174.060053,11.989541 L173.976152,11.989541 L173.976152,0.956520635 L169.613285,0.956520635 L169.613285,32 L173.934201,32 L173.934201,28.6439482 L174.018103,28.6439482 C175.905882,31.160987 178.968279,32.5873091 182.114578,32.5873091 C188.910583,32.5873091 194.070512,27.0917742 194.070512,20.3796706 Z M189.707645,20.3796706 C189.707645,24.7425379 186.225741,28.6019975 181.778972,28.6019975 C177.164401,28.6019975 173.8503,24.8264392 173.8503,20.2957693 C173.8503,15.8909512 177.290253,12.1153929 181.778972,12.1153929 C186.309642,12.1153929 189.707645,15.9748525 189.707645,20.3796706 Z M221.044779,20.086016 C221.044779,13.541715 215.800948,8.13008141 209.214696,8.13008141 C202.418691,8.13008141 197.300712,13.6256163 197.300712,20.3377199 C197.300712,26.8400703 202.502592,32.5873091 209.130795,32.5873091 C214.206823,32.5873091 218.52774,29.4410105 220.289667,24.7005873 L215.9268,24.7005873 C214.66828,27.1337249 212.025389,28.6019975 209.298597,28.6019975 C205.481088,28.6019975 202.544543,25.8752054 201.663579,22.2674497 L220.918927,22.2674497 C221.002828,21.5542887 221.044779,20.799177 221.044779,20.086016 Z M216.681911,18.9113979 L201.663579,18.9113979 C201.915283,15.0938889 205.397187,12.1153929 209.172745,12.1153929 C212.948304,12.1153929 216.430207,15.0938889 216.681911,18.9113979 Z M235.475802,12.6188007 L235.475802,8.13008141 C233.126565,8.2139827 230.987082,8.84324242 229.56076,10.8568735 L229.476859,10.8568735 L229.476859,8.75934112 L225.407646,8.75934112 L225.407646,32 L229.770513,32 L229.770513,19.2889537 C229.770513,17.1914213 230.273921,14.5065799 232.329503,13.4578137 C233.168516,12.9963566 234.510937,12.6188007 235.475802,12.6188007 Z" id="dan-barber" fill="#FFFFFF" sketch:type="MSShapeGroup"></path>
        <path d="M67.6735,53.1825 C67.6735,48.964 64.576,44.9815 59.443,44.9815 C56.139,44.9815 53.543,46.604 52.186,49.259 L52.127,49.259 L52.127,45.365 L51.301,45.365 L51.301,67.2835 L52.127,67.2835 L52.127,57.0175 L52.186,57.0175 C52.953,59.053 55.667,61.3835 59.443,61.3835 C64.4875,61.3835 67.6735,57.4895 67.6735,53.1825 Z M66.8475,53.1825 C66.877,57.578 63.514,60.6165 59.443,60.6165 C55.254,60.6165 52.0385,57.46 52.0385,53.1825 C52.0385,49.141 55.0475,45.7485 59.3545,45.7485 C64.399,45.7485 66.8475,49.6425 66.8475,53.1825 Z M85.6095,61 L85.6095,52.74 C85.6095,49.9375 84.872,47.843 83.338,46.545 C81.568,45.0995 79.444,44.9815 78.3525,44.9815 C75.8745,44.9815 73.131,46.132 72.1575,48.374 L72.0985,48.374 L72.0985,39.17 L71.2725,39.17 L71.2725,61 L72.0985,61 L72.0985,52.0025 C72.0985,48.079 74.5175,45.7485 78.441,45.7485 C80.801,45.7485 82.0695,46.5155 82.866,47.2235 C84.046,48.2855 84.7835,50.026 84.7835,52.74 L84.7835,61 L85.6095,61 Z M105.522,53.1825 C105.522,48.5215 101.982,44.9815 97.2915,44.9815 C92.601,44.9815 89.061,48.5215 89.061,53.1825 C89.061,57.873 92.601,61.3835 97.2915,61.3835 C101.982,61.3835 105.522,57.873 105.522,53.1825 Z M104.696,53.1825 C104.696,57.4305 101.51,60.6165 97.2915,60.6165 C93.073,60.6165 89.887,57.4305 89.887,53.1825 C89.887,48.9345 93.073,45.7485 97.2915,45.7485 C101.51,45.7485 104.696,48.9345 104.696,53.1825 Z M115.257,46.132 L115.257,45.365 L111.245,45.365 L111.245,39.17 L110.419,39.17 L110.419,45.365 L106.9675,45.365 L106.9675,46.132 L110.419,46.132 L110.419,61 L111.245,61 L111.245,46.132 L115.257,46.132 Z M133.1635,53.1825 C133.1635,48.5215 129.6235,44.9815 124.933,44.9815 C120.2425,44.9815 116.7025,48.5215 116.7025,53.1825 C116.7025,57.873 120.2425,61.3835 124.933,61.3835 C129.6235,61.3835 133.1635,57.873 133.1635,53.1825 Z M132.3375,53.1825 C132.3375,57.4305 129.1515,60.6165 124.933,60.6165 C120.7145,60.6165 117.5285,57.4305 117.5285,53.1825 C117.5285,48.9345 120.7145,45.7485 124.933,45.7485 C129.1515,45.7485 132.3375,48.9345 132.3375,53.1825 Z M152.0435,59.2595 L152.0435,45.365 L151.2175,45.365 L151.2175,49.3475 L151.1585,49.3475 C150.3915,47.312 147.6775,44.9815 143.9015,44.9815 C138.7685,44.9815 135.5825,48.8755 135.5825,53.1825 C135.5825,57.401 138.68,61.3835 143.9015,61.3835 C147.2055,61.3835 149.8015,59.761 151.129,57.106 L151.2175,57.106 L151.2175,59.407 C151.2175,63.95 147.648,66.9 143.99,66.9 C142.574,66.9 140.8335,66.428 139.388,65.2775 C138.267,64.422 137.736,63.478 137.3525,62.8585 L136.4085,62.8585 C137.7655,65.956 140.981,67.667 144.108,67.667 C146.527,67.667 152.0435,65.8085 152.0435,59.2595 Z M151.306,53.1825 C151.306,57.224 148.297,60.6165 143.99,60.6165 C138.8865,60.6165 136.4085,56.7225 136.4085,53.1825 C136.4085,48.787 139.742,45.7485 143.9015,45.7485 C148.0905,45.7485 151.306,48.905 151.306,53.1825 Z M162.9585,45.778 L162.9585,44.9815 C161.6015,45.07 158.917,45.247 157.501,48.197 L157.442,48.197 L157.442,45.365 L156.616,45.365 L156.616,61 L157.442,61 L157.442,52.5335 C157.442,50.38 157.678,48.551 159.5365,46.8695 C160.9525,45.8665 162.0145,45.8075 162.9585,45.778 Z M180.806,61 L180.806,45.365 L179.98,45.365 L179.98,49.3475 L179.921,49.3475 C179.154,47.312 176.44,44.9815 172.664,44.9815 C167.6195,44.9815 164.4335,48.8755 164.4335,53.1825 C164.4335,57.401 167.531,61.3835 172.664,61.3835 C175.968,61.3835 178.564,59.761 179.921,57.106 L179.98,57.106 L179.98,61 L180.806,61 Z M180.0685,53.1825 C180.0685,57.224 177.0595,60.6165 172.7525,60.6165 C167.708,60.6165 165.2595,56.7225 165.2595,53.1825 C165.23,48.787 168.593,45.7485 172.664,45.7485 C176.853,45.7485 180.0685,48.905 180.0685,53.1825 Z M201.7805,53.1825 C201.7805,48.964 198.683,44.9815 193.55,44.9815 C190.246,44.9815 187.65,46.604 186.293,49.259 L186.234,49.259 L186.234,45.365 L185.408,45.365 L185.408,67.2835 L186.234,67.2835 L186.234,57.0175 L186.293,57.0175 C187.06,59.053 189.774,61.3835 193.55,61.3835 C198.5945,61.3835 201.7805,57.4895 201.7805,53.1825 Z M200.9545,53.1825 C200.984,57.578 197.621,60.6165 193.55,60.6165 C189.361,60.6165 186.1455,57.46 186.1455,53.1825 C186.1455,49.141 189.1545,45.7485 193.4615,45.7485 C198.506,45.7485 200.9545,49.6425 200.9545,53.1825 Z M219.7165,61 L219.7165,52.74 C219.7165,49.9375 218.979,47.843 217.445,46.545 C215.675,45.0995 213.551,44.9815 212.4595,44.9815 C209.9815,44.9815 207.238,46.132 206.2645,48.374 L206.2055,48.374 L206.2055,39.17 L205.3795,39.17 L205.3795,61 L206.2055,61 L206.2055,52.0025 C206.2055,48.079 208.6245,45.7485 212.548,45.7485 C214.908,45.7485 216.1765,46.5155 216.973,47.2235 C218.153,48.2855 218.8905,50.026 218.8905,52.74 L218.8905,61 L219.7165,61 Z M236.1185,45.365 L235.145,45.365 L228.9795,59.8495 L223.1975,45.365 L222.283,45.365 L228.478,60.9705 L225.705,67.2835 L226.649,67.2835 L236.1185,45.365 Z" id="photography" fill="#FFFFFF" sketch:type="MSShapeGroup"></path>
    </g>
</svg>